<svg id="Layer_1" enable-background="new 0 0 512 512" height="512" viewBox="0 0 512 512" width="512" xmlns="http://www.w3.org/2000/svg"><g><g><path clip-rule="evenodd" d="m443.166 266.742c-9.461 43.834 23.653 74.371 23.858 74.693-4.439 5.786-9.724 11.543-15.973 17.212-106.645 111.952-248.741 160.958-372.848 147.603-19.945-2.221-40.094-9.731-6.249-26.563 14.688-7.335 29.932-15.196 45.496-24.284 70.551-41.116 149.279-103.915 234.665-206.398.876-.468 33.728 32.992 88.831 15.371 2.395-.76 2.716.087 2.22 2.366z" fill="#ff9a9f" fill-rule="evenodd"/></g><g><path clip-rule="evenodd" d="m443.312 323.171c-99.11 103.798-266.786 174.02-389.492 172.763.759 5.845 12.586 9.001 24.383 10.316 124.107 13.355 266.202-35.651 372.847-147.603 6.249-5.669 11.535-11.426 15.973-17.212-.087-.175-13.257-5.961-23.711-18.264z" fill="#ff8086" fill-rule="evenodd"/></g><g><path clip-rule="evenodd" d="m502.795 227.234-30.545 33.927c-6.716-10.052-16.528-18.03-27.858-22.706l24.88-41.934c19.273-32.203 61.265-1.724 33.523 30.713z" fill="#95d6a4" fill-rule="evenodd"/></g><g><path clip-rule="evenodd" d="m440.187 226.474c13.783 5.698 25.697 15.371 33.845 27.615 15.477 23.173 17.463 55.523-7.008 87.346-.204-.321-44.503-19.637-35.071-63.471.496-2.279.175-3.156-2.219-2.396-55.103 17.65-76.742-27.031-77.618-26.563 27.098-29.72 61.147-33.694 88.071-22.531z" fill="#b3e59f" fill-rule="evenodd"/></g><g><path clip-rule="evenodd" d="m477.974 260.723c-1.022 14.407-6.687 29.719-18.368 44.915-4.439 5.757-9.724 11.514-15.973 17.183-.117.117-.234.234-.321.351 10.454 12.303 23.624 18.089 23.712 18.264 22.193-28.873 22.631-58.183 10.95-80.713z" fill="#95d6a4" fill-rule="evenodd"/></g><g><path clip-rule="evenodd" d="m392.939 48.421-21.288 47.311c-10.746-8.532-24.121-13.734-38.021-14.874l12.382-54.003c9.665-41.525 65.645-23.173 46.927 21.566z" fill="#95d6a4" fill-rule="evenodd"/></g><g><path clip-rule="evenodd" d="m341.602 118.438 52.3 65.955v.029c-2.803 7.773-6.541 15.839-11.33 24.167-76.479 158.182-213.201 260.578-352.113 289.303-22.31 4.529-46.723 3.39-15.973-26.592 13.345-13.004 27.128-26.826 40.824-42.08 62.024-68.994 125.392-164.289 182.16-304.849l100.892-7.715c2.861-.234 1.605-.292 3.24 1.782z" fill="#ff9a9f" fill-rule="evenodd"/></g><g><path clip-rule="evenodd" d="m361.897 172.88c-71.164 146.755-228.181 281.003-361.37 322.324 2.833 6.049 16.762 5.348 29.932 2.688 138.912-28.726 275.634-131.121 352.114-289.303 4.789-8.328 8.527-16.394 11.33-24.196-.205-.146-16.441-1.841-32.006-11.513z" fill="#ff8086" fill-rule="evenodd"/></g><g><path clip-rule="evenodd" d="m324.928 69.345c16.908 1.403 33.144 7.715 46.197 18.118 24.821 19.696 38.167 54.032 22.777 96.931-.35-.292-54.987-5.786-59.98-56.487-.263-2.63-.934-3.448-3.241-1.783-53.468 38.252-92.423-2.572-93.212-1.753 19.01-41.584 54.461-57.744 87.459-55.026z" fill="#b3e59f" fill-rule="evenodd"/></g><g><path clip-rule="evenodd" d="m377.725 93.278c4.03 15.868 4.497 34.044-4.293 54.968-3.212 7.627-6.541 15.839-11.33 24.167-.058.146-.146.321-.204.468 15.564 9.673 31.801 11.368 32.005 11.514 13.958-38.955 4.263-70.808-16.178-91.117z" fill="#95d6a4" fill-rule="evenodd"/></g></g></svg>