<svg id="Layer_1" enable-background="new 0 0 512 512" height="512" viewBox="0 0 512 512" width="512" xmlns="http://www.w3.org/2000/svg"><g><path d="m509.676 195.253c-4.179-10.004-13.714-16.96-24.291-17.72-11.398-.822-21.901 5.33-28.825 16.897l-16.168 27.245c-16.917-7.795-37.013-10.179-57.095-3.737.735-1.485 1.475-2.968 2.197-4.46 29.902-52.102 16.524-88.618 5.873-105.759-3.296-5.304-7.204-10.174-11.593-14.569l15.986-35.563c.026-.06.053-.12.078-.18 6.811-16.279 5.416-31.823-3.825-42.645-7.746-9.07-20.071-13.144-31.393-10.385-12.228 2.98-21.177 13.005-24.557 27.529l-8.228 35.929c-5.762-.755-11.634-.974-17.534-.599-34.377 2.191-63.146 23.186-78.976 57.612-.01.019-.018.039-.028.058-.032.069-.065.135-.097.204-.047.102-.091.206-.133.31-.012.031-.025.061-.037.092-.004.011-.009.021-.013.032-17.064 42.259-35.587 82.217-55.054 118.766-1.947 3.655-.562 8.197 3.093 10.144 3.654 1.947 8.197.562 10.145-3.093 18.383-34.512 35.922-72.004 52.202-111.566 26.635 17.581 56.008 17.957 84.095 1.075 7.411 34.129 37.03 46.669 54.079 51.112-2.062 4.707-4.459 9.461-7.215 14.246-.09.156-.175.316-.253.478-7.444 15.395-24.495 45.193-24.62 45.425-67.957 112.641-171.96 194.381-288.189 225.64-.368.072-.732.164-1.086.29-7.489 1.993-15.026 3.789-22.609 5.357-11.641 2.363-17.85 1.874-20.269 1.235.725-1.857 3.179-6.221 11.491-14.325 11.075-10.792 25.626-25.227 39.969-41.202 38.341-42.674 72.321-89.899 103.845-144.311.27-.456.525-.913.783-1.379.181-.328.365-.662.568-1.007 2.093-3.573.893-8.168-2.681-10.261-3.574-2.094-8.168-.892-10.261 2.681-.265.453-.508.891-.747 1.32-.187.338-.37.67-.603 1.065-31.035 53.568-64.419 99.974-102.062 141.871-13.966 15.556-27.693 29.193-39.279 40.484-9.805 9.56-20.351 21.87-14.836 32.297 2.941 5.561 9.29 8.325 19.259 8.324 5.019 0 10.955-.7 17.835-2.097 5.135-1.062 10.262-2.238 15.38-3.501 1.744 3.062 7.002 9.315 28.639 11.725 13.3 1.431 26.719 2.139 40.225 2.139 77.633-.003 157.737-23.428 229.383-67.627 3.525-2.175 4.62-6.795 2.445-10.32s-6.797-4.618-10.319-2.445c-81.292 50.15-173.671 72.644-260.101 63.343-4.843-.539-8.487-1.269-11.175-2.005 57.186-16.974 112.705-46.343 162.298-86.081 46.479-37.243 87.199-83.322 119.84-135.267 12.096 11.577 32.512 23.194 62.929 16.431-2.296 29.734 18.06 47.909 31.237 56.453-2.744 3.033-5.771 6.072-9.114 9.108-.134.121-.263.247-.387.378-20.206 21.207-42.199 40.519-65.367 57.398-3.348 2.439-4.085 7.13-1.645 10.477 1.468 2.015 3.752 3.084 6.067 3.084 1.532 0 3.078-.468 4.41-1.438 23.824-17.357 46.434-37.199 67.209-58.981 40.549-36.96 41.364-75.895 27.987-102.867l22.562-25.029c.044-.048.087-.097.13-.147 10.318-12.068 13.391-25.805 8.426-37.688zm-158.999-159.974c2.075-8.917 6.868-14.717 13.495-16.332 5.88-1.433 12.331.747 16.437 5.554 5.498 6.439 6.005 16.036 1.43 27.029l-14.225 31.647c-7.68-5.313-16.243-9.438-25.314-12.184zm-11.576 95.633c-.431-4.299-2.225-7.187-5.333-8.586-2.125-.955-5.527-1.465-9.639 1.504-26.23 18.767-51.975 19.428-76.576 2.011 13.841-26.12 36.771-41.922 63.703-43.638 27.231-1.738 53.676 11.387 67.372 33.429 10.973 17.66 12.968 39.12 6.146 62.218-15.92-3.74-42.515-14.778-45.673-46.938zm119.597 198.218c-12.17-7.455-30.36-23.432-24.589-50.236.892-4.041.096-7.232-2.369-9.485-1.685-1.541-4.679-3.067-9.397-1.572-29.272 9.382-47.945-.984-59.08-12.954 2.94-4.975 5.815-9.994 8.607-15.066 32.721-20.761 68.986-8.116 86.81 14.712 14.064 18.011 19.571 45.493.018 74.601zm31.212-106.01-19.684 21.837c-4.683-5.927-10.378-11.285-16.828-15.809l16.046-27.041c3.953-6.605 9.218-10.024 14.865-9.616 4.985.359 9.51 3.712 11.527 8.543 2.735 6.546.63 14.387-5.926 22.086z"/></g></svg>