<svg height="511pt" viewBox="-10 1 511 511.968" width="511pt" xmlns="http://www.w3.org/2000/svg"><path d="m385.539062 429.679688c-1.957031 0-3.910156-.761719-5.378906-2.273438-2.886718-2.972656-2.820312-7.71875.148438-10.605469 21.992187-21.371093 37.484375-48.308593 44.8125-77.890625.996094-4.023437 5.058594-6.472656 9.082031-5.480468 4.023437.996093 6.476563 5.066406 5.480469 9.085937-8 32.308594-24.914063 61.714844-48.917969 85.042969-1.457031 1.414062-3.34375 2.121094-5.226563 2.121094zm0 0"/><path d="m178.074219 511.917969c-47.925781.003906-95.707031-19.222657-130.667969-57.160157-66.367188-72.011718-61.773438-184.59375 10.238281-250.960937 15.667969-14.4375 33.542969-25.820313 53.125-33.824219 3.6875-1.507812 7.914063.132813 9.617188 3.734375 1.707031 3.605469.292969 7.910157-3.210938 9.804688-5.183593 2.804687-9.976562 6.21875-14.25 10.15625-42.027343 38.730469-29.152343 121.3125 28.699219 184.085937 28.367188 30.777344 63.132812 52.125 97.886719 60.109375 33.730469 7.742188 63.292969 1.878907 83.25-16.511719 2.796875-2.578124 5.429687-5.449218 7.824219-8.53125 2.410156-3.097656 6.796874-3.820312 10.066406-1.652343 3.273437 2.167969 4.320312 6.488281 2.402344 9.914062-9.144532 16.355469-20.816407 31.132813-34.6875 43.914063-34.074219 31.40625-77.242188 46.921875-120.292969 46.921875zm-105.5-301.316407c-1.609375 1.375-3.199219 2.785157-4.761719 4.226563-65.929688 60.761719-70.136719 163.832031-9.375 229.761719 29.4375 31.941406 69.546875 50.503906 112.941406 52.273437 43.394532 1.773438 84.886719-13.464843 116.824219-42.898437 1.089844-1.003906 2.164063-2.019532 3.222656-3.050782-19.109375 6.433594-41.363281 7.058594-65.273437 1.566407-37.671875-8.652344-75.160156-31.578125-105.558594-64.5625-30.394531-32.984375-50.195312-72.214844-55.75-110.464844-3.648438-25.121094-.910156-47.945313 7.730469-66.851563zm0 0"/><path d="m257.550781 456.1875c-10.035156 0-20.546875-1.230469-31.402343-3.722656-37.671876-8.652344-75.160157-31.578125-105.558594-64.558594-30.394532-32.980469-50.195313-72.210938-55.75-110.464844-5.707032-39.292968 4.207031-72.964844 27.910156-94.8125 23.707031-21.847656 58.074219-28.988281 96.773438-20.101562 37.671874 8.648437 75.160156 31.578125 105.558593 64.558594 30.394531 32.980468 50.195313 72.207031 55.75 110.460937 5.707031 39.292969-4.207031 72.964844-27.910156 94.8125-17.054687 15.722656-39.636719 23.828125-65.371094 23.828125zm-154.632812-262.527344c-42.023438 38.730469-29.148438 121.308594 28.703125 184.078125 28.371094 30.777344 63.132812 52.125 97.886718 60.105469 33.730469 7.742188 63.292969 1.878906 83.246094-16.511719 19.957032-18.394531 28.207032-47.382812 23.234375-81.628906-5.125-35.289063-23.570312-71.671875-51.9375-102.453125-57.851562-62.765625-139.109375-82.324219-181.132812-43.589844zm0 0"/><path d="m259.410156 355.886719c-3.480468 0-6.601562-2.441407-7.335937-5.980469-.839844-4.058594 1.765625-8.027344 5.824219-8.867188 5.289062-1.097656 9.808593-3.347656 13.433593-6.6875 7.574219-6.980468 10.675781-18.203124 8.730469-31.597656-2.09375-14.4375-9.695312-29.378906-21.398438-42.082031-11.707031-12.699219-25.980468-21.492187-40.199218-24.757813-13.191406-3.027343-24.628906-.851562-32.207032 6.128907-7.574218 6.984375-10.675781 18.203125-8.730468 31.597656 2.097656 14.4375 9.695312 29.382813 21.402344 42.082031 8.359374 9.070313 18.21875 16.269532 28.519531 20.816406 3.789062 1.671876 5.503906 6.101563 3.832031 9.890626-1.675781 3.789062-6.101562 5.503906-9.894531 3.832031-12.164063-5.371094-23.742188-13.796875-33.488281-24.371094-13.734376-14.902344-22.6875-32.691406-25.214844-50.09375-2.679688-18.441406 2.085937-34.34375 13.410156-44.78125 11.328125-10.441406 27.566406-13.890625 45.730469-9.71875 17.132812 3.933594 34.132812 14.308594 47.871093 29.210937 13.734376 14.902344 22.6875 32.691407 25.214844 50.089844 2.679688 18.441406-2.085937 34.347656-13.410156 44.785156-5.652344 5.207032-12.566406 8.6875-20.558594 10.34375-.511718.109376-1.027344.160157-1.53125.160157zm0 0"/><path d="m290.449219 512c-20.550781 0-40.835938-3.109375-60.292969-9.246094-3.09375-.976562-5.210938-3.835937-5.242188-7.082031-.035156-3.246094 2.027344-6.144531 5.105469-7.179687 21.667969-7.300782 41.246094-18.917969 58.183594-34.527344 12.703125-11.707032 23.390625-25.234375 31.761719-40.203125.183594-.332031.390625-.644531.621094-.941407 15.398437-19.816406 20.441406-48.304687 14.191406-80.21875-6.457032-33-24.46875-66.855468-50.714844-95.335937-45.234375-49.082031-106.285156-73.140625-151.917969-59.859375-2.761719.804688-5.742187-.042969-7.671875-2.183594-1.925781-2.140625-2.457031-5.191406-1.367187-7.855468 18.917969-46.269532 42.9375-86.121094 69.464843-115.257813 31.480469-34.578125 64.414063-52.109375 97.875-52.109375 41.898438 0 83.816407 28.160156 121.21875 81.441406 31.113282 44.320313 56.617188 102.753906 69.964844 160.316406.9375 4.035157-1.574218 8.0625-5.613281 9-4.023437.9375-8.0625-1.578124-9-5.613281-12.738281-54.933593-38.019531-112.910156-67.628906-155.085937-24.039063-34.242188-62.449219-75.058594-108.941407-75.058594-61.757812 0-115.703124 72.574219-147.847656 144.902344 48.6875-6.695313 108.058594 18.976562 152.496094 67.195312 58.214844 63.167969 74.347656 146.636719 37.691406 194.472656-9.105468 16.160157-20.683594 30.769532-34.414062 43.421876-12.714844 11.722656-26.796875 21.378906-42.046875 28.863281 11.203125 2.089843 22.617187 3.144531 34.125 3.144531 102.125 0 185.210937-83.085938 185.210937-185.210938 0-9.882812-.78125-20.765624-2.320312-32.347656-.546875-4.109375 2.339844-7.878906 6.445312-8.425781 4.105469-.546875 7.878906 2.339844 8.425782 6.445313 1.625 12.238281 2.449218 23.785156 2.449218 34.328124 0 110.394532-89.816406 200.210938-200.210937 200.210938zm0 0"/></svg>