<svg height="512pt" viewBox="-11 0 512 512.00015" width="512pt" xmlns="http://www.w3.org/2000/svg"><path d="m291.070312 0c-68.925781 0-129.640624 80.550781-165.234374 167.613281 48.101562-7.742187 110.421874 9.816407 160.21875 63.847657 58.183593 63.132812 73.535156 145.167968 38.046874 190.832031-8.8125 15.761719-20.222656 30.425781-34.226562 43.328125-18.679688 17.214844-33.238281 19.121094-58.585938 37.210937 18.867188 5.949219 38.949219 9.167969 59.785157 9.167969 109.640625 0 198.527343-88.882812 198.527343-198.527344 0-109.644531-88.886718-313.472656-198.53125-313.472656zm0 0" fill="#f0a479"/><path d="m194.550781 137.660156c-11.222656-2.714844-16.738281-15.378906-11.039062-25.425781 32.3125-56.960937 75.304687-102.609375 123.03125-110.886719-5.105469-.886718-10.265625-1.347656-15.472657-1.347656-76.605468 0-136.425781 97.128906-165.234374 167.613281 9.625-1.550781 20.429687-2.109375 31.5-1.4375 133.011718 8.109375 228.085937 177.207031 166.765624 256.117188-8.8125 15.761719-20.222656 30.425781-34.226562 43.328125-18.679688 17.214844-33.238281 19.121094-58.585938 37.210937 16.734376 5.277344 34.429688 8.398438 52.753907 9.039063 28.375-17.644532 52.78125-42.4375 70.054687-72.542969 71.839844-96.714844-26.082031-269.398437-159.546875-301.667969zm0 0" fill="#e5966e"/><path d="m383.496094 432.578125c-2.976563-3.058594-2.90625-7.949219.152344-10.925781 22.65625-22.015625 38.617187-49.765625 46.164062-80.242188 1.023438-4.140625 5.214844-6.667968 9.355469-5.640625 4.144531 1.023438 6.671875 5.214844 5.644531 9.355469-8.238281 33.285156-25.664062 63.578125-50.390625 87.609375-3.058594 2.96875-7.949219 2.90625-10.925781-.15625zm0 0" fill="#f7b594"/><path d="m319.296875 432.023438c-46.5 42.855468-132.875 20.488281-195.460937-47.421876-62.585938-67.910156-77.683594-155.644531-31.183594-198.5 4.964844-4.574218 10.40625-8.421874 16.242187-11.574218-18.808593 7.6875-36.59375 18.792968-52.414062 33.375-71.167969 65.589844-75.6875 176.449218-10.101563 247.617187 65.589844 71.167969 176.449219 75.691407 247.617188 10.101563 14.003906-12.902344 25.414062-27.566406 34.226562-43.328125-2.683594 3.457031-5.652344 6.714843-8.925781 9.730469zm0 0" fill="#f0a479"/><path d="m77.289062 455.519531c-59.164062-64.195312-61.269531-160.6875-8.882812-227.117187 3.9375-16.445313 11.929688-30.949219 24.246094-42.300782 4.964844-4.574218 10.40625-8.421874 16.242187-11.574218-18.808593 7.6875-36.59375 18.796875-52.414062 33.375-71.167969 65.589844-75.6875 176.449218-10.101563 247.617187 38.300782 41.558594 92.035156 60.378907 144.292969 55.796875-41.910156-3.703125-82.625-22.421875-113.382813-55.796875zm0 0" fill="#e5966e"/><path d="m290.164062 231.449219c-62.585937-67.90625-151.019531-88.210938-197.519531-45.351563-46.5 42.855469-33.457031 132.648438 29.128907 200.554688 62.585937 67.902344 151.015624 88.210937 197.515624 45.351562s33.460938-132.648437-29.125-200.554687zm0 0" fill="#e4eaf8"/><path d="m152.683594 386.660156c-62.585938-67.90625-75.625-157.699218-29.121094-200.558594 12.960938-11.945312 29.183594-18.980468 47.191406-21.445312-30.203125-3.757812-58.050781 2.96875-78.097656 21.445312-46.503906 42.855469-33.464844 132.652344 29.121094 200.558594 45.140625 48.984375 103.726562 73.195313 150.328125 66.808594-39.855469-4.957031-83.820313-28.175781-119.421875-66.808594zm0 0" fill="#d8dce5"/><path d="m264 255.5625c-27.09375-29.394531-65.375-38.183594-85.503906-19.632812-20.128906 18.554687-14.484375 57.425781 12.609375 86.820312 27.089843 29.394531 65.375 38.1875 85.503906 19.632812 20.128906-18.550781 14.484375-57.421874-12.609375-86.820312zm0 0" fill="#ffc850"/><path d="m222.019531 322.761719c-27.09375-29.398438-32.738281-68.269531-12.605469-86.820313 3.597657-3.320312 7.789063-5.75 12.382813-7.355468-16.625-4.65625-32.546875-2.550782-43.292969 7.355468-20.128906 18.550782-14.484375 57.421875 12.605469 86.820313 22.246094 24.136719 52.03125 34.371093 73.121094 26.992187-14.519531-4.066406-29.582031-13.285156-42.210938-26.992187zm0 0" fill="#feb644"/></svg>