<!--?xml version="1.0" encoding="utf-8"?-->
<!-- Generator: Adobe Illustrator 18.0.0, SVG Export Plug-In . SVG Version: 6.00 Build 0)  -->

<svg version="1.1" id="_x32_" xmlns="http://www.w3.org/2000/svg" xmlns:xlink="http://www.w3.org/1999/xlink" x="0px" y="0px" viewBox="0 0 512 512" style="width: 256px; height: 256px; opacity: 1;" xml:space="preserve">
<style type="text/css">
	.st0{fill:#4B4B4B;}
</style>
<g>
	<path class="st0" d="M360.697,275.454l-48.736-166.21H256h-55.961l-48.713,166.132c-6.086,20.759-9.178,42.281-9.178,63.914
		v107.559c0,35.982,25.359,65.152,56.64,65.152h0.285H256h56.926h0.285c31.281,0,56.64-29.17,56.64-65.152V339.207
		C369.851,317.628,366.769,296.161,360.697,275.454z" style="fill: rgb(75, 75, 75);"></path>
	<path class="st0" d="M203.365,81.344v0.159h105.269V29.52c0-16.304-13.217-29.52-29.519-29.52h-46.229
		c-16.304,0-29.521,13.216-29.521,29.52v51.666V81.344L203.365,81.344z" style="fill: rgb(75, 75, 75);"></path>
</g>
</svg>
