<svg id="Capa_1" enable-background="new 0 0 508.479 508.479" height="512" viewBox="0 0 508.479 508.479" width="512" xmlns="http://www.w3.org/2000/svg"><g><path d="m434.537 152.72c-17.483-25.344-41.784-51.445-72.228-77.58-51.557-44.26-103.868-73.881-104.391-74.175-2.283-1.286-5.074-1.286-7.357 0-4.381 2.465-107.978 61.297-168.292 140.299-2.514 3.293-1.883 7.999 1.41 10.513 3.292 2.514 7.999 1.881 10.512-1.41 29.935-39.209 71.913-73.878 105.872-98.446-6.447 7.45-13.152 15.585-19.883 24.339-20.122 26.167-36.173 52.279-47.709 77.611-14.571 31.999-21.96 62.88-21.96 91.786 0 60.372 14.566 117.241 41.017 160.128 9.742 15.796 20.691 29.029 32.527 39.522-75.124-30.507-128.685-108.488-128.685-199.651 0-22.35 7.549-46.32 22.437-71.246 2.124-3.556.964-8.161-2.593-10.285-3.556-2.123-8.159-.963-10.284 2.593-16.297 27.284-24.56 53.842-24.56 78.938 0 60.909 22.184 118.197 62.464 161.312 27.337 29.259 60.789 49.612 97.285 59.728l-23.934 29.562c-2.606 3.219-2.109 7.942 1.109 10.548 1.39 1.125 3.058 1.671 4.715 1.671 2.186 0 4.352-.951 5.834-2.781l28.508-35.211c5.498 1.043 11.05 1.869 16.65 2.455l-9.785 25.335c-1.492 3.864.43 8.206 4.294 9.698.889.343 1.802.506 2.7.506 3.01 0 5.849-1.824 6.998-4.8l11.476-29.713c1.848.05 3.7.078 5.555.078 3.618 0 7.222-.097 10.81-.286l11.557 29.921c1.149 2.976 3.988 4.8 6.998 4.8.898 0 1.813-.163 2.7-.506 3.864-1.492 5.786-5.835 4.294-9.698l-10.018-25.936c4.912-.64 9.784-1.468 14.612-2.462l29.001 35.82c1.482 1.831 3.648 2.781 5.834 2.781 1.657 0 3.326-.547 4.715-1.671 3.219-2.606 3.716-7.329 1.109-10.548l-24.595-30.377c35.369-10.377 67.775-30.429 94.388-58.913 40.28-43.114 62.464-100.402 62.464-161.312 0-29.377-11.294-60.645-33.571-92.937zm-180.274 306.323c-.008 0-.016 0-.023 0s-.014 0-.021 0c-12.231-.027-26.152-22.709-36.337-59.211-11.463-41.082-17.776-95.836-17.776-154.175 0-94.764 38.385-187.124 54.139-221.036 15.759 33.895 54.133 126.188 54.133 221.036 0 58.339-6.313 113.093-17.776 154.175-10.187 36.501-24.108 59.184-36.339 59.211zm-89.968-61.132c-25.011-40.553-38.784-94.625-38.784-152.254 0-60.82 36.096-120.587 66.377-160.015 13.679-17.811 27.442-33.194 38.92-45.147-4.473 10.713-9.458 23.471-14.469 37.873-14.249 40.956-31.234 103.225-31.234 167.29 0 59.664 6.509 115.849 18.328 158.207 5.855 20.981 12.705 37.43 20.366 49.118-22.189-8.991-42.675-27.785-59.504-55.072zm159.976 47.459c10.513-9.282 20.333-20.698 29.208-34.143 25.919-39.264 41.588-92.211 44.122-149.088.185-4.138-3.021-7.642-7.158-7.827-4.14-.183-7.643 3.02-7.826 7.159-4.166 93.491-44.972 169.887-97.905 191.465 7.649-11.685 14.488-28.118 20.335-49.071 11.819-42.358 18.328-98.543 18.328-158.207 0-64.065-16.985-126.334-31.234-167.29-5.01-14.401-9.996-27.159-14.469-37.872 10.372 10.799 22.603 24.392 34.95 40.048 29.086 36.88 64.798 93.076 69.754 151.351.351 4.127 3.955 7.182 8.108 6.837 4.127-.351 7.189-3.981 6.837-8.109-5.278-62.074-42.671-121.057-73.109-159.606-5.337-6.76-10.623-13.108-15.749-19.033 59.864 43.343 144.645 118.075 144.645 193.673 0 91.224-53.633 169.25-128.837 199.713z"/></g></svg>