<svg id="Capa_1" enable-background="new 0 0 488.093 488.093" height="512" viewBox="0 0 488.093 488.093" width="512" xmlns="http://www.w3.org/2000/svg"><g><g><g><path d="m171.816 488.091c-1.657 0-3.325-.547-4.715-1.671-3.219-2.607-3.716-7.329-1.109-10.548l33.098-40.88c2.606-3.218 7.327-3.717 10.549-1.11 3.219 2.607 3.716 7.329 1.109 10.548l-33.098 40.88c-1.483 1.831-3.649 2.781-5.834 2.781z" fill="#f4e2c1"/></g></g><g><g><path d="m220.017 488.093c-.898 0-1.812-.163-2.7-.506-3.864-1.492-5.786-5.835-4.294-9.698l12.641-32.727c1.492-3.864 5.831-5.789 9.698-4.294 3.864 1.492 5.786 5.834 4.294 9.698l-12.641 32.727c-1.149 2.975-3.988 4.8-6.998 4.8z" fill="#f4e2c1"/></g></g><g><g><path d="m273.411 488.093c-3.01 0-5.849-1.824-6.998-4.8l-13.299-34.432c-1.492-3.864.43-8.206 4.294-9.698 3.861-1.493 8.205.429 9.698 4.294l13.299 34.432c1.492 3.864-.43 8.206-4.294 9.698-.888.343-1.802.506-2.7.506z" fill="#f4e2c1"/></g></g><g><g><path d="m319.834 488.091c-2.186 0-4.352-.95-5.834-2.781l-33.099-40.88c-2.607-3.219-2.109-7.942 1.109-10.548 3.22-2.606 7.942-2.109 10.549 1.11l33.099 40.88c2.607 3.219 2.109 7.942-1.109 10.548-1.388 1.124-3.057 1.671-4.715 1.671z" fill="#f4e2c1"/></g></g><g><g><path d="m37.677 236.27c0-109.436 166.072-214.181 200.26-234.584 3.767-2.248 8.452-2.248 12.219 0 34.188 20.403 200.26 125.148 200.26 234.584 0 121.993-92.395 220.888-206.369 220.888s-206.37-98.895-206.37-220.888z" fill="#f3d69e"/></g></g><path d="m250.156 1.686c-1.44-.859-3.015-1.385-4.621-1.587v17.574c57.778 38.114 174.88 126.696 174.88 218.597 0 116.593-84.398 212.077-191.369 220.303 4.955.381 9.955.585 15 .585 113.975 0 206.369-98.895 206.369-220.887 0-109.437-166.071-214.181-200.259-234.585z" fill="#efcb83"/><g><g><path d="m107.818 236.27c0-108.399 107.56-212.195 131.531-233.982 2.667-2.424 6.728-2.424 9.395 0 23.971 21.786 131.531 125.583 131.531 233.982 0 121.993-60.992 220.888-136.229 220.888s-136.228-98.895-136.228-220.888z" fill="#efcb83"/></g></g><g><g><path d="m245.743 1.43c-.702-1.399-2.69-1.399-3.392 0-9.915 19.766-59.94 124.938-59.94 234.841 0 121.993 27.595 220.888 61.636 220.888s61.636-98.895 61.636-220.888c0-109.903-50.025-215.075-59.94-234.841z" fill="#dbb56a"/></g></g></g></svg>