<!--?xml version="1.0" encoding="utf-8"?-->
<!-- Generator: Adobe Illustrator 18.0.0, SVG Export Plug-In . SVG Version: 6.00 Build 0)  -->

<svg version="1.1" id="_x32_" xmlns="http://www.w3.org/2000/svg" xmlns:xlink="http://www.w3.org/1999/xlink" x="0px" y="0px" viewBox="0 0 512 512" style="width: 64px; height: 64px; opacity: 1;" xml:space="preserve">
<style type="text/css">
	.st0{fill:#4B4B4B;}
</style>
<g>
	<path class="st0" d="M502.385,61.305l-51.686-51.69C444.495,3.416,436.25,0,427.482,0c-8.772,0-17.013,3.416-23.212,9.615
		l-25.375,25.597l-0.053,0.054l0,0l-0.111,0.114l98.001,98.005l25.652-25.656c6.199-6.199,9.615-14.444,9.615-23.212
		C511.999,75.75,508.584,67.505,502.385,61.305z" style="fill: rgb(75, 75, 75);"></path>
	<path class="st0" d="M301.459,55.395l7.444,7.218l2.012,2.01l-101.068,55.66L16.833,313.296c-22.443,22.447-22.443,58.963,0,81.406
		l100.465,100.464C128.15,506.019,142.606,512,157.998,512c0,0,0,0,0.004,0c15.389,0,29.845-5.981,40.701-16.833l193.039-193.051
		l43.485-79.302l11.95-21.705l9.653,9.432l30.192-30.418L331.651,24.976L301.459,55.395z M307.604,325.656l-0.214,0.215
		l-121.26-121.034l49.813-49.824l106.496-58.643l73.247,73.087l-58.67,106.566L307.604,325.656z M221.01,412.25L101.027,292.497
		l-1.28-1.28l29.66-29.657l121.147,120.92l-29.417,29.645L221.01,412.25z M47.251,343.715l38.968-38.968l120.624,120.401
		l0.523,0.523l-39.081,39.077c-2.744,2.744-6.398,4.255-10.287,4.255c-3.892,0-7.542-1.511-10.282-4.251L47.247,364.288
		c-2.744-2.744-4.255-6.398-4.251-10.286C42.996,350.109,44.507,346.459,47.251,343.715z M142.937,248.028l29.657-29.657
		l121.147,120.92l-29.544,29.77L143.199,248.29L142.937,248.028z" style="fill: rgb(75, 75, 75);"></path>
</g>
</svg>
