<svg height="512" viewBox="0 0 46 60" width="512" xmlns="http://www.w3.org/2000/svg"><g id="Page-1" fill="none" fill-rule="evenodd"><g id="002---Spam" fill="rgb(0,0,0)" fill-rule="nonzero"><path id="Shape" d="m8 12h30c2.209139 0 4-1.790861 4-4s-1.790861-4-4-4h-30c-2.209139 0-4 1.790861-4 4s1.790861 4 4 4zm0-6h30c1.1045695 0 2 .8954305 2 2s-.8954305 2-2 2h-30c-1.1045695 0-2-.8954305-2-2s.8954305-2 2-2z"/><path id="Shape" d="m8 60h30c4.4162219-.0049599 7.9950401-3.5837781 8-8v-44c-.0049599-4.41622192-3.5837781-7.99504012-8-8h-30c-4.41622192.00495988-7.99504012 3.58377808-8 8v44c.00495988 4.4162219 3.58377808 7.9950401 8 8zm0-58h30c3.3137085.00000005 5.9999999 2.68629154 5.9999999 6 0 3.3137085-2.6862914 6-5.9999999 6h-30c-3.31370846 0-5.99999991-2.6862915-5.99999991-6 0-3.31370846 2.68629145-5.99999995 5.99999991-6zm0 14h30c2.2994431-.001299 4.48645-.9949291 6-2.726v2.726c-.0033074 3.3123376-2.6876624 5.9966926-6 6h-30c-3.31233757-.0033074-5.99669262-2.6876624-6-6v-2.726c1.51355003 1.7310709 3.70055695 2.724701 6 2.726zm0 8h30c2.2994431-.001299 4.48645-.9949291 6-2.726v19.726c-.0033074 3.3123376-2.6876624 5.9966926-6 6h-30c-3.31233757-.0033074-5.99669262-2.6876624-6-6v-19.726c1.51355003 1.7310709 3.70055695 2.724701 6 2.726zm-6 22.274c1.51355003 1.7310709 3.70055695 2.724701 6 2.726h30c2.2994431-.001299 4.48645-.9949291 6-2.726v5.726c-.0033074 3.3123376-2.6876624 5.9966926-6 6h-30c-3.31233757-.0033074-5.99669262-2.6876624-6-6z"/><path id="Shape" d="m7.5 39c-.82842712 0-1.5-.6715729-1.5-1.5 0-.5522847-.44771525-1-1-1s-1 .4477153-1 1c0 1.9329966 1.56700338 3.5 3.5 3.5s3.5-1.5670034 3.5-3.5-1.56700338-3.5-3.5-3.5c-.82842712 0-1.5-.6715729-1.5-1.5s.67157288-1.5 1.5-1.5 1.5.6715729 1.5 1.5c0 .5522847.44771525 1 1 1 .5522847 0 1-.4477153 1-1 0-1.9329966-1.56700338-3.5-3.5-3.5s-3.5 1.5670034-3.5 3.5 1.56700338 3.5 3.5 3.5c.82842712 0 1.5.6715729 1.5 1.5s-.67157288 1.5-1.5 1.5z"/><path id="Shape" d="m14 41c.5522847 0 1-.4477153 1-1v-3h1c2.209139 0 4-1.790861 4-4s-1.790861-4-4-4h-2c-.5522847 0-1 .4477153-1 1v10c0 .5522847.4477153 1 1 1zm1-10h1c1.1045695 0 2 .8954305 2 2s-.8954305 2-2 2h-1z"/><path id="Shape" d="m23 41c.5522847 0 1-.4477153 1-1v-3h3v3c0 .5522847.4477153 1 1 1s1-.4477153 1-1v-8c0-1.6568542-1.3431458-3-3-3h-1c-1.6568542 0-3 1.3431458-3 3v8c0 .5522847.4477153 1 1 1zm2-10h1c.5522847 0 1 .4477153 1 1v3h-3v-3c0-.5522847.4477153-1 1-1z"/><path id="Shape" d="m32 41c.5522847 0 1-.4477153 1-1v-7.773l2.835 2.521c.3790844.3375422.9509156.3375422 1.33 0l2.835-2.521v7.773c0 .5522847.4477153 1 1 1s1-.4477153 1-1v-10c.0004561-.394156-.2306637-.7518115-.5902042-.9133348s-.7804231-.0967794-1.0747958.1653348l-3.835 3.41-3.835-3.41c-.2943727-.2621142-.7152553-.3268581-1.0747958-.1653348s-.5906603.5191788-.5902042.9133348v10c0 .5522847.4477153 1 1 1z"/><path id="Shape" d="m27 43h-8c-.5522847 0-1 .4477153-1 1s.4477153 1 1 1h8c.5522847 0 1-.4477153 1-1s-.4477153-1-1-1z"/></g></g></svg>