<svg height="512" viewBox="0 0 44 58" width="512" xmlns="http://www.w3.org/2000/svg"><g id="Page-1" fill="none" fill-rule="evenodd"><g id="002---Spam" fill-rule="nonzero"><path id="Shape" d="m44 7v44c0 1.8565154-.7374979 3.6369928-2.0502525 4.9497475-1.3127547 1.3127546-3.0932321 2.0502525-4.9497475 2.0502525h-30c-1.85651543 0-3.63699282-.7374979-4.94974747-2.0502525-1.31275465-1.3127547-2.05025253-3.0932321-2.05025253-4.9497475v-44z" fill="#f0c419"/><rect id="Rectangle-path" fill="#f29c1f" height="14" rx="7" width="44"/><path id="Shape" d="m0 40c0 3.8659932 3.13400675 7 7 7h30c3.8659932 0 7-3.1340068 7-7v-25c0 3.8659932-3.1340068 7-7 7h-30c-3.86599325 0-7-3.1340068-7-7z" fill="#f9eab0"/><path id="Shape" d="m7 10c-1.65685425 0-3-1.34314575-3-3s1.34314575-3 3-3h30c1.6568542 0 3 1.34314575 3 3s-1.3431458 3-3 3z" fill="#7f8c8d"/><g fill="#3f5c6c"><path id="Shape" d="m6.5 30c.82842712 0 1.5.6715729 1.5 1.5 0 .5522847.44771525 1 1 1s1-.4477153 1-1c0-1.9329966-1.56700338-3.5-3.5-3.5s-3.5 1.5670034-3.5 3.5 1.56700338 3.5 3.5 3.5c.82842712 0 1.5.6715729 1.5 1.5s-.67157288 1.5-1.5 1.5-1.5-.6715729-1.5-1.5c0-.5522847-.44771525-1-1-1s-1 .4477153-1 1c0 1.9329966 1.56700338 3.5 3.5 3.5s3.5-1.5670034 3.5-3.5-1.56700338-3.5-3.5-3.5c-.82842712 0-1.5-.6715729-1.5-1.5s.67157288-1.5 1.5-1.5z"/><path id="Shape" d="m19 32c0-2.209139-1.790861-4-4-4h-2c-.5522847 0-1 .4477153-1 1v10c0 .5522847.4477153 1 1 1s1-.4477153 1-1v-3h1c2.209139 0 4-1.790861 4-4zm-5-2h1c1.1045695 0 2 .8954305 2 2s-.8954305 2-2 2h-1z"/><path id="Shape" d="m25 28h-1c-1.6568542 0-3 1.3431458-3 3v8c0 .5522847.4477153 1 1 1s1-.4477153 1-1v-3h3v3c0 .5522847.4477153 1 1 1s1-.4477153 1-1v-8c0-1.6568542-1.3431458-3-3-3zm-2 6v-3c0-.5522847.4477153-1 1-1h1c.5522847 0 1 .4477153 1 1v3z"/><path id="Shape" d="m40.41 28.088c-.3593396-.1619696-.780302-.0977483-1.075.164l-3.835 3.41-3.835-3.41c-.2943727-.2621142-.7152553-.3268581-1.0747958-.1653348s-.5906603.5191788-.5902042.9133348v10c0 .5522847.4477153 1 1 1s1-.4477153 1-1v-7.773l2.835 2.521c.3790844.3375422.9509156.3375422 1.33 0l2.835-2.521v7.773c0 .5522847.4477153 1 1 1s1-.4477153 1-1v-10c-.0000337-.3936244-.2309808-.750614-.59-.912z"/></g><path id="Shape" d="m26 42h-8c-.5522847 0-1 .4477153-1 1s.4477153 1 1 1h8c.5522847 0 1-.4477153 1-1s-.4477153-1-1-1z" fill="#35495e"/></g></g></svg>